<svg width="20" height="21" viewBox="0 0 20 21" fill="none" xmlns="http://www.w3.org/2000/svg">
<g clip-path="url(#clip0_37_4082)">
<path d="M10.0002 7.16665C10.9168 7.16665 11.6668 6.41665 11.6668 5.49998C11.6668 4.58331 10.9168 3.83331 10.0002 3.83331C9.0835 3.83331 8.3335 4.58331 8.3335 5.49998C8.3335 6.41665 9.0835 7.16665 10.0002 7.16665ZM10.0002 8.83331C9.0835 8.83331 8.3335 9.58331 8.3335 10.5C8.3335 11.4166 9.0835 12.1666 10.0002 12.1666C10.9168 12.1666 11.6668 11.4166 11.6668 10.5C11.6668 9.58331 10.9168 8.83331 10.0002 8.83331ZM10.0002 13.8333C9.0835 13.8333 8.3335 14.5833 8.3335 15.5C8.3335 16.4166 9.0835 17.1666 10.0002 17.1666C10.9168 17.1666 11.6668 16.4166 11.6668 15.5C11.6668 14.5833 10.9168 13.8333 10.0002 13.8333Z" fill="#718096" fill-opacity="0.5"/>
</g>
<defs>
<clipPath id="clip0_37_4082">
<rect width="20" height="20" fill="white" transform="translate(0 0.5)"/>
</clipPath>
</defs>
</svg>
